<?xml version="1.0" encoding="iso-8859-1"?>
<!-- Uploaded to: SVG Repo, www.svgrepo.com, Generator: SVG Repo Mixer Tools -->
<svg fill="#000000" height="800px" width="800px" version="1.1" id="Layer_1" xmlns="http://www.w3.org/2000/svg" xmlns:xlink="http://www.w3.org/1999/xlink" 
	 viewBox="0 0 512.2 512.2" xml:space="preserve">
<g>
	<g>
		<g>
			<path d="M495.1,38.4H85.5c-9.4,0-17.1,7.6-17.1,17.1v17.1H51.3c-9.4,0-17.1,7.6-17.1,17.1v17.1H17.1c-9.4,0-17.1,7.6-17.1,17.1
				v332.8c0,9.4,7.6,17.1,17.1,17.1h409.6c9.4,0,17.1-7.6,17.1-17.1v-17.1h17.1c9.4,0,17.1-7.6,17.1-17.1v-17.1h17.1
				c9.4,0,17.1-7.6,17.1-17.1V55.5C512.2,46,504.6,38.4,495.1,38.4z M426.8,314.4l-44.7-51.2c-3.4-3.9-9.4-3.9-12.9,0l-54,61.8
				L168,194.2c-3.2-2.9-8.1-2.9-11.3,0L17.3,318.1V132.3c0-4.7,3.8-8.5,8.5-8.5h392.5c4.7,0,8.5,3.8,8.5,8.5V314.4z M452.5,422.4
				H444V123.7c0-9.4-7.6-17.1-17.1-17.1H51.4v-8.5c0-4.7,3.8-8.5,8.5-8.5h392.5c4.7,0,8.5,3.8,8.5,8.5l0.1,315.8
				C461,418.6,457.2,422.4,452.5,422.4z M486.6,388.2h-8.5V89.6c0-9.4-7.6-17.1-17.1-17.1H85.5V64c0-4.7,3.8-8.5,8.5-8.5h392.5
				c4.7,0,8.5,3.8,8.5,8.5v315.7h0.1C495.1,384.4,491.3,388.2,486.6,388.2z"/>
			<path d="M307.4,174.9c-18.8,0-34.1,15.3-34.1,34.1c0,18.8,15.3,34.1,34.1,34.1c18.8,0,34.1-15.3,34.1-34.1
				C341.5,190.2,326.2,174.9,307.4,174.9z"/>
		</g>
	</g>
</g>
</svg>